<svg id="Capa_1" data-name="Capa 1" xmlns="http://www.w3.org/2000/svg" viewBox="0 0 180 180"><defs><style>.cls-1{fill:#9cd75a;}.cls-2{fill:#3f0f33;}.cls-3{fill:#9bd65a;}.cls-4{fill:#41b541;}.cls-5{fill:#edf2b8;}.cls-6{fill:#ecf2b7;}.cls-7{fill:#41b441;}.cls-8{fill:#41b641;}</style></defs><rect class="cls-1" width="180" height="180" rx="34"/><path class="cls-2" d="M-115.27-93.48A41.29,41.29,0,0,1-130.34-96a27,27,0,0,1-11-7.17,4.58,4.58,0,0,0-2.5-1.45,45.75,45.75,0,0,1-17-7.37,23.24,23.24,0,0,1-2.58-2.16c-4.08-4-4.52-8.81-1.17-13.42a2.86,2.86,0,0,0,.45-2.85c-1.95-6.35-2.91-12.8-1.71-19.43a22.48,22.48,0,0,1,3.08-8.06,3.06,3.06,0,0,0,.49-2.2c-.66-4.44.46-8.23,4.13-11A3.86,3.86,0,0,0-157-173a24.58,24.58,0,0,1,12.25-13.66c3.84-1.89,7.83-2.73,12-1a1.83,1.83,0,0,0,1.38-.14A24.17,24.17,0,0,1-119.53-189c.46.08.92.25,1.25-.32,2.09-3.56,5.48-4.08,9.13-3.69,5.4.59,10,3.2,14.38,6.18A8.3,8.3,0,0,0-91-185.28c3.54.47,6.15,2.65,8.22,5.42A5.8,5.8,0,0,0-79-177.3c4.67,1,8.3,4.66,7.46,10.69-.08.59-.17,1.21.41,1.67,3,2.42,4,5.83,4.48,9.46a43.75,43.75,0,0,1-.67,13.41,3.27,3.27,0,0,0,.28,2.37c4,6.8,3.25,13.29-1.41,19.47A24.85,24.85,0,0,1-76-113.51c-.81.47-1.1.81-.53,1.77a6.8,6.8,0,0,1-1.27,7.89c-2.45,2.43-5.57,3.77-8.71,5A77.39,77.39,0,0,1-115.27-93.48Z" transform="translate(205.66 233.28)"/><path class="cls-3" d="M-130.2-110.18a53.81,53.81,0,0,0,7.37-6.87A26.93,26.93,0,0,0-117-128.2a16.44,16.44,0,0,1,2.43-5.67c2.86-4.12,6.93-5.49,11.74-5,1.82.2,2.35-.1,2.67-1.88A14.27,14.27,0,0,1-99-144.27c1.49-3.14,3.48-4.37,6.92-4a6.83,6.83,0,0,0,7-3.44,36.46,36.46,0,0,0,2.29-4.49c.69-1.49,1.35-3,2.13-4.43,1-1.72,2.17-3.19,4.42-3a5.65,5.65,0,0,1,5,3.38,8.91,8.91,0,0,1-.11,4.41,72.94,72.94,0,0,1-7.74,20.38c-.17.3-.37.59-.56.87a76.33,76.33,0,0,1-13.13,14.78,13.17,13.17,0,0,1-1.35,1c-1,.62-1.56.33-1.63-.82a22.46,22.46,0,0,1,.3-3.74,51.45,51.45,0,0,1,.76-5.25,2.49,2.49,0,0,0,.06-.9.54.54,0,0,0-.34-.51c-.31-.09-.48.14-.61.37a3.42,3.42,0,0,0-.29,1A54.09,54.09,0,0,0-97-117.95a2.52,2.52,0,0,1-1.29,2.33,61.86,61.86,0,0,1-14.09,7.09,38.5,38.5,0,0,1-4.84,1.45c-1.94.38-2.41-.11-1.84-2a26.19,26.19,0,0,1,3.46-7.79c.27-.38.87-.92.32-1.33s-.92.28-1.23.67a23.26,23.26,0,0,0-3.71,8.22c-.9,3.16-.86,3.16-4.13,3.48-2.79.28-5.6.36-8.4.46-.6,0-1.38.1-1.44-.88,0-.08,0-.21.09-.23C-132.2-107.08-131.4-108.83-130.2-110.18Z" transform="translate(205.66 233.28)"/><path class="cls-4" d="M-80.22-134.77a100.1,100.1,0,0,0,5-10.74,73.42,73.42,0,0,0,3.85-14.71c1.37,2.26,1.6,4.81,1.73,7.35a44.28,44.28,0,0,1-1.14,11.7,2.34,2.34,0,0,0,.26,2c4.68,6.8,3.19,13.09-2,18.79a20.32,20.32,0,0,1-8.27,5.64A1.63,1.63,0,0,0-82-113.31a1.66,1.66,0,0,0,1,1.65c2.77,1.57,2.93,4.35.31,6.29a31.71,31.71,0,0,1-8.1,4A72.91,72.91,0,0,1-117-96.68c-7.29-.31-14.2-1.93-20-6.74a4.91,4.91,0,0,1-.45-.46c.13-.76.71-.62,1.22-.58A59.5,59.5,0,0,0-115-106.53a2.6,2.6,0,0,1,2.7.56c3.21,2.67,7.14,3.53,11.14,4.15.45.07,1.09.12,1.12-.53s-.56-.58-1-.65a24.69,24.69,0,0,1-8.4-2.48c-.68-.38-1.72-.6-1.65-1.6s1.1-1.11,1.83-1.41A65.27,65.27,0,0,0-90-120.78a72.5,72.5,0,0,0,9.54-10.88A2.52,2.52,0,0,0-80.22-134.77Z" transform="translate(205.66 233.28)"/><path class="cls-3" d="M-156-160.62a13.82,13.82,0,0,1,3.48-2.22c3.36-1.51,6.12-.83,8.38,2.06A18.44,18.44,0,0,1-141-154a1.92,1.92,0,0,0,2.2,1.68,5.59,5.59,0,0,1,4.08,2,21.54,21.54,0,0,1,4.67,7.1,2.23,2.23,0,0,0,2.57,1.57c4.6-.32,7.85,1.88,9,5.93a3.1,3.1,0,0,1-.17,2.49,20,20,0,0,0-1.58,4.51,25.46,25.46,0,0,1-9,13.54,1.92,1.92,0,0,1-1.56-.31,70.4,70.4,0,0,1-5.55-4.65c-.68-.59-.42-1.22,0-1.84a33.45,33.45,0,0,0,3-5.84,12.85,12.85,0,0,0,.8-2.46c.09-.44.34-1.06-.3-1.21s-.64.48-.77.87a31.12,31.12,0,0,1-3.09,6.83c-.06.11-.13.22-.2.33-.95,1.46-1.47,1.52-2.65.19a61.45,61.45,0,0,1-6.67-8.73A42.74,42.74,0,0,1-152-146.62c-.29-1.57-.74-2.81-2.52-3.07-.94-1.83-1-3.87-1.44-5.83-.2-.91-.27-1.86-.4-2.79A3.31,3.31,0,0,1-156-160.62Z" transform="translate(205.66 233.28)"/><path class="cls-4" d="M-156-160.62a65.29,65.29,0,0,0,1.92,10.84c.38.15.42.48.46.84a43.84,43.84,0,0,0,5.27,15.63c.1.19.23.36.32.56.22.42.46.86.07,1.32s-.78.26-1.2.15a27.39,27.39,0,0,1-5.48-2c-.46-.23-1.14-.82-1.46-.17s.51,1,1,1.23a30.43,30.43,0,0,0,7.48,2.48,4.44,4.44,0,0,1,2.82,1.87,58.3,58.3,0,0,0,12.59,12.79c.47.35,1.21.65.88,1.51a47.06,47.06,0,0,1-9.79,6,1.44,1.44,0,0,1-1,.13c-6.71-1.54-13.09-3.81-18.45-8.33-.2-.17-.38-.36-.57-.54-3.17-3.15-3.41-6.67-.38-10a3.52,3.52,0,0,0,.76-4c-2.12-6.52-3.23-13.17-1.68-20A17.3,17.3,0,0,1-156-160.62Z" transform="translate(205.66 233.28)"/><path class="cls-3" d="M-150.75-177.7c3.64-4.68,8.15-7.76,14.31-7.69,2.58,0,3.21,1,2.36,3.48a15.74,15.74,0,0,1-1.86,3.54c-1,1.48-.38,2.61,1.37,2.76.52.05,1,0,1.55.14a2.88,2.88,0,0,1,2.54,3,11.75,11.75,0,0,1-1,5.16,1.77,1.77,0,0,0,.18,2.15,1.81,1.81,0,0,0,2.27.12,14,14,0,0,1,1.82-.65,2.94,2.94,0,0,1,3.42,1.18,12.1,12.1,0,0,1,1.84,3.68,20.9,20.9,0,0,0,2.7,5.56,1.37,1.37,0,0,1-.36,1.31,16.68,16.68,0,0,1-5,3.87c-1.71.81-2.81.37-3.4-1.46a6.06,6.06,0,0,0-2.48-3.36c-.58-.56,0-1,.16-1.49s.43-.87-.07-1.15-.69.18-.93.49-.45.76-1,.63a10.2,10.2,0,0,1-4.64-5.81,8.2,8.2,0,0,0-1.95-3.47c-1-1-2-1.78-3.53-1.36-.65-.21-.63-.79-.63-1.28a45.32,45.32,0,0,1,.17-7,2.72,2.72,0,0,0,0-.64c0-.3,0-.68-.35-.77s-.61.27-.7.6a16.24,16.24,0,0,0-.51,4.61c0,.7.23,1.49-.41,2.08-2.59.43-5.75-2.09-6.26-5A4.9,4.9,0,0,1-150.75-177.7Z" transform="translate(205.66 233.28)"/><path class="cls-3" d="M-120.09-143.21l-1.63-.84a29.31,29.31,0,0,0,4.76-4.23,46.08,46.08,0,0,0,4.94-7.58,38.11,38.11,0,0,1,4-6,6.16,6.16,0,0,1,6.63-2.1c.38.09.76.17,1.15.24,2.35.46,3.86-.74,4-3.16s-.64-4.69-1-7a21.73,21.73,0,0,1-.35-3.86c.09-2.84,1.49-4.26,4.33-4.47a7.86,7.86,0,0,1,5.81,2.08,14.68,14.68,0,0,1,3.28,4A6.09,6.09,0,0,0-83-174.76a.78.78,0,0,1-.07,1,28,28,0,0,0-3.25,6.14c-.25.55-.48,1.16-1.3.89-.8-1-.4-2.32-.69-3.47a21.71,21.71,0,0,0-.61-2.77c-.14-.39-.3-.94-.86-.74s-.33.67-.23,1a17.74,17.74,0,0,1,.63,6A11.67,11.67,0,0,1-90.69-161a9.87,9.87,0,0,1-5,.71,6.49,6.49,0,0,0-4.72,1.62,19.74,19.74,0,0,1-1,1.85,6.08,6.08,0,0,0-1.79,3.08c-.19.58-.32,1.17-.48,1.75a1.43,1.43,0,0,1-1.84,1.14,13.06,13.06,0,0,0-5.75.49,12.1,12.1,0,0,0-7.06,5.52C-118.83-144.18-119.14-143.36-120.09-143.21Z" transform="translate(205.66 233.28)"/><path class="cls-4" d="M-100.47-180c-.67,3.63.34,7.12.89,10.64,0,.13.07.26.09.38.37,2,.31,2.11-1.75,1.76a9.22,9.22,0,0,0-9.08,3.16,39.23,39.23,0,0,0-4.65,7c-.49.88-.87.92-1.45.15A12.51,12.51,0,0,1-119-167.68c.66-2.8,2.82-4.23,5.38-5.13.49-.17,1-.25,1.51-.39a1.57,1.57,0,0,0,1.06-2.57c-.65-1.12-1.36-2.2-2-3.3,0-1.13-.69-2.14-.46-3.35a2.38,2.38,0,0,1,2.59-2.29,11.27,11.27,0,0,1,4.12,1.07,43.25,43.25,0,0,1,5.18,2.38A2.22,2.22,0,0,1-100.47-180Z" transform="translate(205.66 233.28)"/><path class="cls-5" d="M-80.22-134.77c1.76.52,2,1,.94,2.55a67.11,67.11,0,0,1-14.34,15.41,62.83,62.83,0,0,1-16,9.21c-.31.12-.62.26-1,.44a9.13,9.13,0,0,0,3.39,1.94,25.8,25.8,0,0,0,6.79,1.57c.65.06,1.32.12,1.69.77a1.21,1.21,0,0,1-1.24,1.8c-4.67-.39-9.12-1.47-12.87-4.5-.43-.34-.76-.62-1.37-.44a61.67,61.67,0,0,1-23.21,2.14,3.89,3.89,0,0,1-1.28-1.3l2.42-1.15c.82,0,1.68-1,2.45.12,2.85.32,5.69-.21,8.53-.14s4.22-1.08,4.77-4a18,18,0,0,1,3.7-7.92c.62-.76,1.31-2,2.5-1.1s.16,1.79-.48,2.59a24,24,0,0,0-3.7,8.22c-.31,1.08.3,1,1.06.82a69.36,69.36,0,0,0,16.11-6.67c2.79-1.51,4-3.34,3.85-6.57-.19-3,.54-5.92,1.11-8.85.18-.89.43-1.82,1.61-1.56s1,1.22.85,2.1a68.88,68.88,0,0,0-1.16,8.6c0,.48-.34,1.15.18,1.42s.81-.37,1.16-.66a64.23,64.23,0,0,0,12.19-13.36A4.87,4.87,0,0,1-80.22-134.77Z" transform="translate(205.66 233.28)"/><path class="cls-4" d="M-120.09-143.21a22.91,22.91,0,0,1,2.4-3.82c3.14-3.62,7.19-4.91,11.83-4.54,1.06.08,1.45-.2,1.63-1.21a12.41,12.41,0,0,1,1.52-4c.18-.33.33-.91.91-.39,2.44.28,4.87.61,7.27,1.08,1.15.22,1.31.87.76,1.92a9.6,9.6,0,0,1-3.13,3.3c-3.22,1.57-5,4.32-5.94,7.62a1.4,1.4,0,0,1-1.63,1.18A14.74,14.74,0,0,0-115-138.25c-.65.6-.8.24-1-.32A11,11,0,0,0-120.09-143.21Z" transform="translate(205.66 233.28)"/><path class="cls-5" d="M-131.31-113.55a63,63,0,0,1-14.54-14.65,1.82,1.82,0,0,0-1.28-.73,31.76,31.76,0,0,1-8.12-2.58,13.89,13.89,0,0,1-1.36-.76c-.69-.43-1.12-1-.63-1.83a1.22,1.22,0,0,1,1.9-.33,21.56,21.56,0,0,0,5.11,2.18c.56.17,1.15.29,2,.49a61.63,61.63,0,0,1-3.45-7.05,48.4,48.4,0,0,1-2.63-9.6,2.46,2.46,0,0,1,.23-1.37c1.46-.59,2.05-.32,2.29,1.15,1.59,9.67,6.3,17.72,12.79,24.87.77.85,1.12.73,1.65-.2a31.75,31.75,0,0,0,3.23-7.33c0-.17.11-.33.16-.49.23-.75.7-1.25,1.52-1.07s1.05.94.88,1.74a21.65,21.65,0,0,1-1.47,4.28,28.59,28.59,0,0,1-2.56,4.79,1.17,1.17,0,0,0,.2,1.85,68.06,68.06,0,0,0,6.16,5A8.29,8.29,0,0,1-131.31-113.55Z" transform="translate(205.66 233.28)"/><path class="cls-4" d="M-118.27-182.94a33.55,33.55,0,0,0,3,6.31c.29.46.57.86-.23,1.18a10.77,10.77,0,0,0-6.69,7.55c0,.07-.11.12-.21.22a6.69,6.69,0,0,0-4.48-1.28c-.61.06-.59-.28-.54-.73a13.07,13.07,0,0,0,.11-3.48,5.72,5.72,0,0,0-3.78-5c-.74-.28-.94-.53-.55-1.28a22.12,22.12,0,0,0,1-2.54c.7-1.06,1.87-1,2.92-1.15a56.7,56.7,0,0,1,7.6-.32A3.55,3.55,0,0,1-118.27-182.94Z" transform="translate(205.66 233.28)"/><path class="cls-4" d="M-87.43-166.95c.71-1.51,1.42-3,2.14-4.53A12.51,12.51,0,0,1-83-174.76a15.55,15.55,0,0,1,4.67,1,5.76,5.76,0,0,1,3.69,6.19c-.07.72-.32,1-1,.92-3.55-.37-5.88,1.46-7.64,4.29A43.26,43.26,0,0,0-86-157c-.34.75-.66,1.5-1,2.23-1.73,3.36-2.48,3.75-6.24,3.32-.74-.45-.17-.87.07-1.23a32.59,32.59,0,0,0,3.92-8c.52-1.7.74-3.45,1.1-5.18C-88.06-166.33-88.12-166.91-87.43-166.95Z" transform="translate(205.66 233.28)"/><path class="cls-3" d="M-100.47-180a55.68,55.68,0,0,0-8.4-3.71c-3.27-1.06-4.27-.29-4.14,3.19a3.21,3.21,0,0,1-.07,1.41,19.78,19.78,0,0,1-2.55-6.45c-.37-2.25.36-3.41,2.54-4.08a8.87,8.87,0,0,1,4.22-.17c4.34.74,8.08,2.81,11.89,5.26A6.77,6.77,0,0,0-100.47-180Z" transform="translate(205.66 233.28)"/><path class="cls-5" d="M-87.43-166.95a28.77,28.77,0,0,1-5.81,15.45,11.72,11.72,0,0,0-3.66.67c.88-1.5,2.19-2.73,3-4.5-2.22-.32-4.32-.65-6.44-.93-.63-.09-1.18-.22-1.46-.87a1.56,1.56,0,0,1,.83-1.72,3.87,3.87,0,0,1,2.71-.34l3.84.53a1.7,1.7,0,0,0,2-1c.3-.73,1-1.14,1.33-1.81a17.84,17.84,0,0,0,.39-10.91c-.08-.29-.17-.58-.26-.86a1.22,1.22,0,0,1,.81-1.75c.82-.24,1.32.23,1.58,1a21.84,21.84,0,0,1,1.09,5.83C-87.45-167.81-87.45-167.38-87.43-166.95Z" transform="translate(205.66 233.28)"/><path class="cls-4" d="M-150.75-177.7a1.58,1.58,0,0,1,0,.38c-.23,4.08,1.69,6.55,5.61,7.52,1,.84,1.3,3.4.5,4.22-5.71-2.93-10.16-.14-14.46,3.27a5.48,5.48,0,0,1,2-5.46c1.94-1.39,2.74-3.27,3.53-5.32A14.63,14.63,0,0,1-150.75-177.7Z" transform="translate(205.66 233.28)"/><path class="cls-4" d="M-130.18-155.3a4.56,4.56,0,0,1,2.75,3.33c.49,1.68,1.15,2,2.72,1.18a20.29,20.29,0,0,0,5.42-4.52c2.22,2.18,2.23,2.19.26,4.57a17.06,17.06,0,0,1-7.17,5.35c-.66.25-1.1.27-1.46-.47a29.13,29.13,0,0,0-4.21-6.34A2.61,2.61,0,0,1-130.18-155.3Z" transform="translate(205.66 233.28)"/><path class="cls-4" d="M-142.24-167.52c.05-.65.19-1.11,1-.68,1.88,1,3.68,2.19,4.32,4.25a15,15,0,0,0,4.67,7.13,2.36,2.36,0,0,1-1.57,3,8.16,8.16,0,0,0-3.37-1.54,1.41,1.41,0,0,1-1.18-1.15,20.89,20.89,0,0,0-3.19-6.14c-.22-1.18-1.13-2.11-1.16-3.36C-142.73-166.6-142.83-167.16-142.24-167.52Z" transform="translate(205.66 233.28)"/><path class="cls-3" d="M-118.27-182.94a2.8,2.8,0,0,1-1.4.17,53.27,53.27,0,0,0-11.06.81c.06-.77.13-1.53.16-2.3,0-.54.43-.59.79-.7a21.49,21.49,0,0,1,9.72-.9c.94.14,1.49.5,1.5,1.53A6.38,6.38,0,0,0-118.27-182.94Z" transform="translate(205.66 233.28)"/><path class="cls-5" d="M-142.24-167.52c.22,1.21.44,2.43.67,3.64.08.4.35.8,0,1.21a14.51,14.51,0,0,0-3-2.91c-.16-1.4-.33-2.81-.5-4.22a29.48,29.48,0,0,1,.54-6.95c.21-.85.49-1.71,1.54-1.53s1.15,1.06,1,2A25.1,25.1,0,0,0-142.24-167.52Z" transform="translate(205.66 233.28)"/><path class="cls-6" d="M-133.81-153.84l1.57-3c.26-.44.48-.91.78-1.32a1.2,1.2,0,0,1,1.65-.51,1.21,1.21,0,0,1,.52,1.66,16,16,0,0,1-.89,1.69l-1.69,3.1Z" transform="translate(205.66 233.28)"/><path class="cls-7" d="M-133.87-106.21l-2.46-.12,6.13-3.85c-.3.7-.62,1.4-.89,2.11A2.46,2.46,0,0,1-133.87-106.21Z" transform="translate(205.66 233.28)"/><path class="cls-8" d="M-91.09-161.51a1.11,1.11,0,0,1,0,.26c-1,3.52-1,3.53-4.52,3.1-1.78-.21-3.56-.47-5.35-.7A5.87,5.87,0,0,1-96.11-161C-94.43-161-92.68-160.53-91.09-161.51Z" transform="translate(205.66 233.28)"/></svg>